<svg width="17" height="13" viewBox="0 0 17 13" fill="none" xmlns="http://www.w3.org/2000/svg">
<path d="M0.5 6.67514C0.5 7.06321 0.814543 7.37775 1.20261 7.37775H14.1225L9.69036 11.8059C9.55555 11.9407 9.48611 12.1204 9.48611 12.3001C9.48611 12.4799 9.55555 12.6596 9.69036 12.7944C9.96405 13.0681 10.4093 13.0681 10.683 12.7944L16.3039 7.16942C16.5654 6.90798 16.5654 6.44229 16.3039 6.17677L10.6789 0.555856C10.4052 0.282163 9.95997 0.282163 9.68627 0.555856C9.41258 0.829548 9.41258 1.27481 9.68627 1.5485L14.1144 5.97661H1.19853C0.810457 5.97252 0.5 6.28707 0.5 6.67514Z" fill="#00730C"/>
</svg>
