<svg width="50" height="50" viewBox="0 0 50 50" fill="none" xmlns="http://www.w3.org/2000/svg">
<path d="M3.9742 13.3338L2.7242 15.4988C2.26397 16.2959 2.53707 17.3152 3.3342 17.7755L11.2725 22.3588C12.0697 22.819 13.089 22.5459 13.5492 21.7488L14.7992 19.5838C15.2594 18.7867 14.9863 17.7674 14.1892 17.3071L6.25087 12.7238C5.45374 12.2636 4.43444 12.5367 3.9742 13.3338Z" fill="#00730C"/>
<path d="M19.7668 21.3583L16.6668 19.5833L14.5835 23.1916C18.0335 25.1749 17.7752 25.0833 18.0918 25.0499C18.5723 25.6651 19.0121 26.3109 19.4085 26.9833C19.9858 25.8261 20.6458 24.7121 21.3835 23.6499C20.8335 23.1749 20.3668 22.8166 20.0252 22.5666C20.2642 22.1576 20.1523 21.6338 19.7668 21.3583Z" fill="#00730C"/>
<path d="M11.2701 35.1409L3.33176 39.7243C2.53463 40.1845 2.26152 41.2038 2.72176 42.001L3.97176 44.166C4.432 44.9631 5.4513 45.2362 6.24843 44.776L14.1868 40.1926C14.9839 39.7324 15.257 38.7131 14.7968 37.9159L13.5468 35.7509C13.0865 34.9538 12.0672 34.6807 11.2701 35.1409Z" fill="#00730C"/>
<path d="M35.8918 15.9416C31.6668 17.7416 31.9334 17.5666 30.6501 18.3333C27.5834 20.1083 24.5418 21.9916 22.6334 24.7833C21.8105 26.0684 21.0647 27.4013 20.4001 28.775C19.7678 30.0911 19.0027 31.3393 18.1168 32.5C17.7668 32.5 18.0668 32.35 14.6001 34.35L16.6668 37.9166L19.7501 36.1416C20.1399 35.8483 20.2412 35.3058 19.9834 34.8916L20.0334 34.9583C22.3387 33.208 24.3647 31.1174 26.0418 28.7583C29.2001 24.4083 25.8751 26.8333 36.8751 20.4833L46.8751 14.725C43.1692 14.2647 39.4071 14.6815 35.8918 15.9416Z" fill="#00730C"/>
<path d="M27.0501 30.2083C26.0273 31.5853 24.8929 32.8758 23.6584 34.0667C25.5251 36.2333 30.0084 38.975 32.3751 40.1083C31.9616 42.2129 31.362 44.2765 30.5834 46.275C30.2447 46.9685 30.3171 47.7924 30.7715 48.4163C31.226 49.0401 31.9882 49.3615 32.7521 49.2515C33.5161 49.1416 34.1566 48.6183 34.4168 47.8917C35.2387 45.8903 35.8856 43.8214 36.3501 41.7083C39.7246 42.8525 43.3145 43.2172 46.8501 42.775L37.1834 37.1917C37.8701 32.2348 37.8701 27.2069 37.1834 22.25L33.2168 24.5417C33.5641 27.9801 33.5641 31.4449 33.2168 34.8833C27.3334 31.5083 28.5418 32.4083 27.0501 30.2083Z" fill="#00730C"/>
<path d="M28.0751 11.8C26.4084 7.15 18.1167 3.925 14.9167 6.53333C14.8251 8.63333 16.9084 11.2583 20.1334 12.875C23.1417 14.375 26.2417 14.5417 27.9667 13.475C28.9101 13.5959 29.865 13.5959 30.8084 13.475C31.0834 14.3083 31.3501 15.1417 31.5751 15.975L35.3584 14.375C35.4917 14.375 35.4501 14.375 35.3584 14.15C34.9501 9.7 41.6667 6.50833 41.6667 6.48333C42.4157 6.23318 42.9589 5.5811 43.0695 4.79925C43.1802 4.0174 42.8393 3.24019 42.1892 2.79202C41.539 2.34386 40.6914 2.30177 40.0001 2.68333C37.3672 3.93296 35.0489 5.75852 33.2167 8.025C32.3231 5.91892 31.3047 3.86806 30.1667 1.88333C29.8073 1.2182 29.1156 0.800017 28.3596 0.790687C27.6036 0.781356 26.9019 1.18234 26.5261 1.8384C26.1504 2.49446 26.1595 3.30262 26.5501 3.95C27.9989 6.48101 29.2391 9.12587 30.2584 11.8583C29.5307 11.9194 28.7985 11.8998 28.0751 11.8Z" fill="#00730C"/>
</svg>
