<svg width="30" height="30" viewBox="0 0 30 30" fill="none" xmlns="http://www.w3.org/2000/svg">
<path d="M1.17184 7.96869H28.8281C29.475 7.96869 29.9999 7.44365 29.9999 6.79685C29.9999 6.14994 29.4749 5.625 28.8281 5.625H1.17184C0.524943 5.625 0 6.15004 0 6.79685C0 7.44365 0.525041 7.96869 1.17184 7.96869Z" fill="#00730C"/>
<path d="M28.8281 13.8281H1.17184C0.524943 13.8281 0 14.3532 0 15C0 15.6468 0.525041 16.1718 1.17184 16.1718C1.81865 16.1718 28.8281 16.1718 28.8281 16.1718C29.475 16.1718 29.9999 15.6468 29.9999 15C29.9999 14.3532 29.475 13.8281 28.8281 13.8281Z" fill="#00730C"/>
<path d="M28.8281 22.0312H12.8906C12.2437 22.0312 11.7188 22.5563 11.7188 23.2031C11.7188 23.85 12.2438 24.3749 12.8906 24.3749H28.8281C29.475 24.3749 29.9999 23.8499 29.9999 23.2031C30 22.5562 29.475 22.0312 28.8281 22.0312Z" fill="#00730C"/>
</svg>
