<svg width="21" height="20" viewBox="0 0 21 20" fill="none" xmlns="http://www.w3.org/2000/svg">
<g clip-path="url(#clip0_673_53610)">
<path d="M11.6719 5.89844C11.9955 5.89844 12.2578 5.6361 12.2578 5.3125C12.2578 4.9889 11.9955 4.72656 11.6719 4.72656C11.3483 4.72656 11.0859 4.9889 11.0859 5.3125C11.0859 5.6361 11.3483 5.89844 11.6719 5.89844Z" fill="#00730c"/>
<path d="M14.0156 5.89844C14.3392 5.89844 14.6016 5.6361 14.6016 5.3125C14.6016 4.9889 14.3392 4.72656 14.0156 4.72656C13.692 4.72656 13.4297 4.9889 13.4297 5.3125C13.4297 5.6361 13.692 5.89844 14.0156 5.89844Z" fill="#00730c"/>
<path d="M16.3594 5.89844C16.683 5.89844 16.9453 5.6361 16.9453 5.3125C16.9453 4.9889 16.683 4.72656 16.3594 4.72656C16.0358 4.72656 15.7734 4.9889 15.7734 5.3125C15.7734 5.6361 16.0358 5.89844 16.3594 5.89844Z" fill="#00730c"/>
<path d="M13.6724 18.7891C14.637 18.7891 15.4219 18.0005 15.4219 17.0312V14.6875C15.4219 14.4354 15.2607 14.2116 15.0216 14.1318L11.5143 12.9599C11.3426 12.9025 11.1542 12.9277 11.0036 13.0281L9.51211 14.0224C7.91141 13.2629 6.01949 11.3877 5.26699 9.81547L6.26098 8.32449C6.36133 8.17394 6.38652 7.98543 6.32918 7.81379L5.1573 4.30648C5.07742 4.06742 4.85363 3.90625 4.60156 3.90625H2.25781C1.28855 3.90625 0.5 4.69105 0.5 5.65574C0.5 8.89313 1.97203 12.2157 4.53867 14.7716C7.1025 17.3248 10.4316 18.7891 13.6724 18.7891ZM2.25781 5.07812H4.17957L5.12684 7.91313L4.11406 9.43227C4.00703 9.59281 3.9859 9.79574 4.05758 9.97488C4.44723 10.949 5.22699 12.0446 6.2532 13.0598C7.27266 14.0684 8.37359 14.8396 9.35324 15.2315C9.53234 15.3031 9.73535 15.282 9.89586 15.175L11.415 14.1622L14.25 15.1095V17.0312C14.25 17.3598 13.9963 17.6172 13.6724 17.6172C7.50391 17.6172 1.67188 11.8041 1.67188 5.65574C1.67188 5.33184 1.92926 5.07812 2.25781 5.07812Z" fill="#00730c"/>
<path d="M11.4477 11.7132C11.6666 11.8039 11.9186 11.7537 12.0862 11.5862L14.2583 9.41406H16.3594C18.6425 9.41406 20.5 7.5741 20.5 5.3125C20.5 3.0509 18.6425 1.21094 16.3594 1.21094H11.6719C9.41027 1.21094 7.57031 3.0509 7.57031 5.3125C7.57031 7.3752 9.1009 9.08715 11.0859 9.37234V11.1719C11.0859 11.4089 11.2287 11.6225 11.4477 11.7132ZM8.74219 5.3125C8.74219 3.69707 10.0564 2.38281 11.6719 2.38281H16.3594C17.9963 2.38281 19.3281 3.69707 19.3281 5.3125C19.3281 6.92793 17.9963 8.24219 16.3594 8.24219H14.0156C13.8602 8.24219 13.7112 8.30391 13.6013 8.41379L12.2578 9.75731V8.82812C12.2578 8.50453 11.9955 8.24219 11.6719 8.24219C10.0564 8.24219 8.74219 6.92793 8.74219 5.3125Z" fill="#00730c"/>
</g>
<defs>
<clipPath id="clip0_673_53610">
<rect width="20" height="20" fill="#00730c" transform="translate(0.5)"/>
</clipPath>
</defs>
</svg>
