<svg width="25" height="25" viewBox="0 0 25 25" fill="none" xmlns="http://www.w3.org/2000/svg">
<path d="M1.7146 1.82746C1.22673 2.31532 1.25912 3.13828 1.71655 3.59571L10.3058 12.185L12.0736 10.4172L3.48432 1.82794C3.02696 1.37058 2.20253 1.33952 1.7146 1.82746Z" fill="#00730C"/>
<path d="M22.9983 23.1112C23.4862 22.6233 23.4976 21.8413 23.0402 21.3838L14.7718 13.1154L13.0041 14.8832L21.2724 23.1516C21.7298 23.609 22.5105 23.599 22.9983 23.1112Z" fill="#00730C"/>
<path d="M23.3832 3.61447L3.82732 23.1704C3.36989 23.6278 2.48862 23.7195 2.00076 23.2316C1.5129 22.7437 1.60219 21.86 2.05955 21.4026C2.51691 20.9452 21.6154 1.84671 21.6154 1.84671C22.0729 1.38928 23.0108 1.24433 23.4987 1.7322C23.9866 2.22006 23.8406 3.15704 23.3832 3.61447Z" fill="#00730C"/>
</svg>
