<svg width="50" height="50" viewBox="0 0 50 50" fill="none" xmlns="http://www.w3.org/2000/svg">
<g clip-path="url(#clip0_2060_22637)">
<path d="M13.7195 35.9364C14.7804 33.7771 13.4406 31.0168 12.5891 29.6816H8.54492C8.33772 29.6816 8.13901 29.764 7.99249 29.9105C7.84598 30.057 7.76367 30.2557 7.76367 30.4629C7.76367 33.697 10.5409 36.0038 13.7195 35.9364Z" fill="#00730C"/>
<path d="M27.3004 29.6816H17.915C18.5588 31.2157 18.9618 33.7532 18.6401 35.9298C20.8743 35.9274 22.9734 35.9267 23.1055 35.9316C23.2966 35.939 26.284 34.9433 27.5411 34.5371C27.6982 34.4864 27.8352 34.3871 27.9324 34.2535C28.0295 34.12 28.0817 33.9591 28.0816 33.7939V30.4629C28.0816 30.2557 27.9993 30.057 27.8528 29.9105C27.7063 29.764 27.5076 29.6816 27.3004 29.6816Z" fill="#00730C"/>
<path d="M43.7448 21.0995C39.076 20.8191 35.8933 25.6698 37.5 29.6816H36.7188C36.5115 29.6816 36.3128 29.7639 36.1663 29.9105C36.0198 30.057 35.9375 30.2557 35.9375 30.4629V33.5879C35.9375 33.7951 36.0198 33.9938 36.1663 34.1403C36.3128 34.2868 36.5115 34.3691 36.7188 34.3691H43.3594C44.2588 34.3681 45.1488 34.1846 45.9752 33.8297C46.8017 33.4748 47.5476 32.9558 48.1677 32.3042C48.7877 31.6526 49.2691 30.882 49.5827 30.039C49.8963 29.1959 50.0355 28.298 49.992 27.3996C49.8286 24.0315 47.1108 21.3017 43.7448 21.0995ZM43.3594 31.2441C42.6641 31.2441 41.9843 31.0379 41.4062 30.6516C40.8281 30.2653 40.3775 29.7163 40.1114 29.0739C39.8453 28.4315 39.7757 27.7246 39.9113 27.0426C40.047 26.3607 40.3818 25.7343 40.8735 25.2426C41.3651 24.7509 41.9915 24.4161 42.6735 24.2804C43.3555 24.1448 44.0624 24.2144 44.7048 24.4805C45.3471 24.7466 45.8962 25.1972 46.2825 25.7753C46.6688 26.3535 46.875 27.0332 46.875 27.7285C46.874 28.6606 46.5032 29.5542 45.8442 30.2133C45.1851 30.8724 44.2915 31.2431 43.3594 31.2441Z" fill="#00730C"/>
<path d="M33.5895 32.0312H30.4679C30.2608 32.031 30.0623 31.9486 29.916 31.8021C29.7697 31.6556 29.6875 31.457 29.6875 31.25V8.59375C29.6872 8.38708 29.769 8.18875 29.9148 8.04228C30.0606 7.89581 30.2586 7.81317 30.4652 7.8125C33.383 7.81094 36.0927 10.4752 35.9306 13.4668V23.1543C35.9366 23.576 34.4605 27.7556 34.3698 28.1305V31.25C34.3698 31.457 34.2876 31.6556 34.1413 31.8021C33.995 31.9486 33.7965 32.031 33.5895 32.0312Z" fill="#00730C"/>
<path d="M29.6875 34.375V37.0703C24.6815 35.5469 19.4698 40.2104 21.5723 46.0341C22.0652 47.4068 23.0622 48.5404 24.3606 49.2048C29.3699 51.7537 34.375 48.1543 34.375 43.4082V34.375C34.375 34.1678 34.2927 33.9691 34.1462 33.8226C33.9997 33.6761 33.8009 33.5938 33.5937 33.5938H30.4687C30.2615 33.5938 30.0628 33.6761 29.9163 33.8226C29.7698 33.9691 29.6875 34.1678 29.6875 34.375ZM27.7344 46.9238C27.039 46.9238 26.3593 46.7176 25.7812 46.3313C25.203 45.945 24.7524 45.396 24.4863 44.7536C24.2203 44.1112 24.1506 43.4043 24.2863 42.7223C24.4219 42.0404 24.7568 41.414 25.2484 40.9223C25.7401 40.4306 26.3665 40.0958 27.0485 39.9601C27.7305 39.8245 28.4373 39.8941 29.0797 40.1602C29.7221 40.4263 30.2712 40.8769 30.6575 41.455C31.0438 42.0332 31.25 42.7129 31.25 43.4082C31.249 44.3403 30.8782 45.2339 30.2191 45.893C29.5601 46.5521 28.6664 46.9228 27.7344 46.9238Z" fill="#00730C"/>
<path d="M12.3975 26.0468C13.4658 28.9618 15.625 30.0133 15.625 34.3749C15.625 40.0798 7.8125 39.4471 7.8125 49.2186C7.8125 50.2225 9.375 50.2131 9.375 49.2186C9.375 40.2994 17.1875 41.7837 17.1875 34.3749C17.1875 29.4978 14.9675 28.387 13.93 25.4784C13.5547 24.4279 12.0584 25.1218 12.3975 26.0468Z" fill="#00730C"/>
<path d="M25.8533 10.2001C25.7129 10.1428 23.0137 9.05527 20.4281 8.89853C21.5324 6.60663 21.9244 3.83701 21.9446 3.68984C21.9606 3.55944 21.9437 3.42713 21.8955 3.30492C21.8473 3.18272 21.7693 3.07449 21.6687 2.99008C21.568 2.90566 21.4479 2.84774 21.3191 2.82157C21.1904 2.7954 21.0572 2.80181 20.9315 2.84023C20.7871 2.88661 18.0201 3.78867 15.9386 5.33046C15.3114 2.86484 13.8317 0.491106 13.7525 0.365325C13.681 0.255131 13.583 0.164572 13.4675 0.101879C13.352 0.0391865 13.2227 0.00634766 13.0913 0.00634766C12.9599 0.00634766 12.8306 0.0391865 12.7151 0.101879C12.5996 0.164572 12.5016 0.255131 12.4301 0.365325C12.3493 0.493743 10.81 2.96298 10.2067 5.48251C8.14139 3.99648 5.48153 3.12939 5.34003 3.08388C5.2144 3.04547 5.08117 3.03905 4.95244 3.06522C4.8237 3.09139 4.70355 3.14932 4.6029 3.23373C4.50224 3.31814 4.42427 3.42637 4.37608 3.54858C4.32789 3.67078 4.311 3.80309 4.32694 3.93349C4.34755 4.08368 4.75536 6.96503 5.91229 9.28261C3.37538 9.47255 0.781237 10.5181 0.643249 10.5741C0.522283 10.6255 0.416068 10.7062 0.334261 10.8091C0.252453 10.9119 0.197646 11.0336 0.174824 11.163C0.152001 11.2924 0.161887 11.4255 0.203581 11.5501C0.245275 11.6747 0.317456 11.7869 0.413562 11.8766C0.525964 11.9784 2.691 13.9232 5.06727 14.9548C3.2454 16.7309 1.92928 19.1991 1.85995 19.331C1.80027 19.4481 1.7708 19.5783 1.77423 19.7096C1.77766 19.841 1.81388 19.9694 1.87958 20.0832C1.94529 20.197 2.03841 20.2926 2.15046 20.3612C2.26251 20.4299 2.38995 20.4694 2.52118 20.4763C2.67274 20.4821 5.58114 20.5809 8.06434 19.8438C7.81044 22.3752 8.38944 25.1118 8.42079 25.2571C8.45035 25.3852 8.51144 25.5038 8.59851 25.6022C8.68558 25.7006 8.79587 25.7757 8.91935 25.8206C9.04283 25.8656 9.17558 25.8789 9.30553 25.8595C9.43549 25.8401 9.55853 25.7885 9.66347 25.7094C9.78339 25.6164 12.0746 23.822 13.5031 21.6609C14.9358 23.7636 17.1387 25.4882 17.2558 25.5795C17.3608 25.6586 17.4838 25.7102 17.6138 25.7296C17.7438 25.749 17.8765 25.7357 18 25.6907C18.1235 25.6458 18.2338 25.5707 18.3208 25.4722C18.4079 25.3738 18.469 25.2552 18.4985 25.1271C18.5306 24.9789 19.1333 22.1318 18.8383 19.5584C21.2871 20.2479 24.0824 20.153 24.2311 20.1474C24.3624 20.1405 24.4898 20.1009 24.6018 20.0322C24.7139 19.9636 24.807 19.868 24.8727 19.7542C24.9384 19.6404 24.9746 19.512 24.978 19.3806C24.9815 19.2493 24.952 19.1191 24.8924 19.002C24.8216 18.8679 23.4523 16.2998 21.5721 14.5178C23.8915 13.472 25.9726 11.6022 26.0827 11.5024C26.1788 11.4128 26.251 11.3006 26.2927 11.176C26.3344 11.0514 26.3444 10.9184 26.3216 10.789C26.2988 10.6596 26.244 10.5379 26.1622 10.4351C26.0804 10.3322 25.9743 10.2515 25.8533 10.2001ZM13.0913 17.1884C12.3187 17.1884 11.5635 16.9593 10.9211 16.5301C10.2787 16.1008 9.77805 15.4908 9.48239 14.777C9.18674 14.0632 9.10938 13.2778 9.2601 12.5201C9.41083 11.7623 9.78286 11.0663 10.3292 10.52C10.8755 9.97369 11.5715 9.60165 12.3292 9.45093C13.087 9.30021 13.8724 9.37756 14.5862 9.67322C15.2999 9.96887 15.91 10.4695 16.3392 11.1119C16.7684 11.7543 16.9975 12.5095 16.9975 13.2821C16.9975 14.3181 16.586 15.3117 15.8534 16.0443C15.1209 16.7768 14.1273 17.1884 13.0913 17.1884Z" fill="#00730C"/>
</g>
<defs>
<clipPath id="clip0_2060_22637">
<rect width="50" height="50" fill="white"/>
</clipPath>
</defs>
</svg>
