<svg width="50" height="50" viewBox="0 0 50 50" fill="none" xmlns="http://www.w3.org/2000/svg">
<g clip-path="url(#clip0_2060_15740)">
<path d="M29.6322 8.32813C27.9003 6.67484 25.156 6.73854 23.5031 8.47042C21.8498 10.2023 21.9131 12.9462 23.645 14.5995C25.3769 16.2528 28.1208 16.1891 29.7741 14.4572C31.4274 12.7257 31.3637 9.98142 29.6322 8.32813Z" fill="#00730C"/>
<path d="M36.9378 22.7925C36.9378 21.8514 36.2626 21.0686 35.3707 20.8997C35.5504 21.3631 35.677 21.893 35.677 22.4671C35.677 23.3487 35.378 24.1273 35.0476 24.7186C36.0947 24.6983 36.9378 23.8446 36.9378 22.7925Z" fill="#00730C"/>
<path d="M48.4937 39.931H47.3806C46.6382 39.931 45.926 39.6362 45.4011 39.1113L44.8243 38.5345V35.8512C45.1337 35.377 45.4755 34.6755 45.4755 33.8927C45.4755 32.4634 44.3361 31.3049 44.3361 31.3049C44.3361 31.3049 43.1966 32.4634 43.1966 33.8927C43.1966 34.6759 43.5384 35.377 43.8478 35.8512V36.5195C43.7627 36.362 43.6559 36.2113 43.5228 36.0778C42.7972 35.3526 41.5559 35.4179 41.5559 35.4179C41.5559 35.4179 41.4903 36.6595 42.2155 37.3847C42.7049 37.8741 43.4282 38.0031 43.8478 38.0355V38.5345L43.271 39.1113C42.7461 39.6362 42.0339 39.931 41.2915 39.931H39.2751C38.5328 39.931 37.8205 39.6362 37.2956 39.1113L37.1267 38.9419C36.6319 38.4471 35.8293 38.4471 35.3345 38.9419L35.1655 39.1113C34.6406 39.6362 33.9284 39.931 33.1861 39.931H27.2962C28.2991 39.4012 28.8175 38.2178 28.4719 37.0937L25.7795 28.6239C25.5109 27.7492 24.7701 27.1022 23.8671 26.9538L23.3709 26.8722L19.341 31.0935L21.6108 31.4674L23.8645 38.5093C24.0602 39.1463 24.4962 39.6426 25.0421 39.931H16.4136C17.6309 39.2879 18.0555 37.7689 17.3726 36.592L12.5741 28.3225L16.2778 32.2871L22.7719 25.484L20.659 20.3208L24.3009 25.5111C24.4371 25.7053 24.6076 25.8723 24.8044 26.0043L31.6404 30.5942C32.5261 31.1893 33.7232 30.9505 34.3156 30.0685C34.8943 29.2072 34.6833 28.0494 33.8544 27.4413V24.4254C34.1634 23.9513 34.5052 23.2501 34.5052 22.467C34.5052 21.0376 33.3661 19.8791 33.3661 19.8791C33.3661 19.8791 32.2267 21.0376 32.2267 22.467C32.2267 23.2501 32.5685 23.9513 32.8778 24.4258V26.7806L27.2515 23.0029L23.8153 18.1056L26.1697 20.2365L27.757 21.6071L31.3577 24.0249C31.1799 23.5637 31.0548 23.0369 31.0548 22.467C31.0548 21.8787 31.1883 21.3359 31.3749 20.8644H28.7755L21.5245 14.9863C20.3546 13.8694 18.5006 13.9125 17.3841 15.0825L7.43877 25.6568C6.74183 26.3976 6.54232 27.531 7.08172 28.4602C7.85076 29.7858 10.1373 33.7268 11.1032 35.3915H4.11617C2.78751 35.3915 1.66484 36.4417 1.64806 37.7704C1.63623 38.7065 2.15885 39.5217 2.92942 39.931H1.46495C0.635639 39.931 -0.0376547 40.6253 0.00163673 41.4664C0.0390208 42.2546 0.718418 42.8607 1.5073 42.8607H48.5353C49.3676 42.8607 50.0383 42.1664 49.9986 41.3253C49.9612 40.5372 49.2826 39.931 48.4937 39.931Z" fill="#00730C"/>
</g>
<defs>
<clipPath id="clip0_2060_15740">
<rect width="50" height="50" fill="white"/>
</clipPath>
</defs>
</svg>
