<svg width="50" height="46" viewBox="0 0 50 46" fill="none" xmlns="http://www.w3.org/2000/svg">
<path d="M20.6054 37.6975C20.6054 33.6591 17.3195 30.3733 13.2812 30.3733C9.24277 30.3733 5.95703 33.6592 5.95703 37.6975C5.95703 41.7358 9.24277 45.0217 13.2812 45.0217C17.4801 45.0217 20.6054 41.5818 20.6054 37.6975ZM11.8163 37.6975C11.8163 36.8883 12.4722 36.2327 13.2812 36.2327C14.0901 36.2327 14.746 36.8883 14.746 37.6975C14.746 38.5065 14.0901 39.1624 13.2812 39.1624C12.4722 39.1624 11.8163 38.5065 11.8163 37.6975Z" fill="#00730C"/>
<path d="M44.1405 33.303C40.909 33.303 38.2812 35.9308 38.2812 39.1624C38.2812 42.3113 40.8305 45.0217 44.1405 45.0217C47.3721 45.0217 49.9999 42.3939 49.9999 39.1624C49.9999 35.853 47.3025 33.303 44.1405 33.303Z" fill="#00730C"/>
<path d="M44.1405 30.3731C44.9687 30.3731 45.7543 30.5183 46.5323 30.7456C45.6865 28.6259 43.89 26.9518 41.5742 26.3462C22.3432 21.3719 25.0594 22.1061 23.8898 21.8044C20.9358 21.0619 17.5398 22.3365 15.8818 24.9901L14.2661 27.543C19.4522 28.0473 23.5352 32.3812 23.5352 37.6973C23.5352 39.2254 23.1736 40.7234 22.5193 42.0918H35.8688C35.8651 42.0809 35.8588 42.0712 35.8551 42.0604C35.5289 41.1907 35.3516 40.1921 35.3516 39.1622C35.3515 34.3156 39.2939 30.3731 44.1405 30.3731ZM27.9296 34.7676C27.9296 35.5773 27.2744 36.2325 26.4647 36.2325C25.6551 36.2325 24.9999 35.5773 24.9999 34.7676V31.8379C24.9999 31.0283 25.6551 30.3731 26.4647 30.3731C27.2744 30.3731 27.9296 31.0283 27.9296 31.8379V34.7676ZM33.8866 34.7676C33.8866 35.5773 33.2314 36.2325 32.4218 36.2325C31.6121 36.2325 30.9569 35.5773 30.9569 34.7676V31.8379C30.9569 31.0283 31.6121 30.3731 32.4218 30.3731C33.2314 30.3731 33.8866 31.0283 33.8866 31.8379V34.7676Z" fill="#00730C"/>
<path d="M39.7461 21.5842C39.7461 22.3939 40.4988 23.0491 41.3085 23.0491H47.0701C47.8798 23.0491 48.535 22.3939 48.535 21.5842C48.535 20.7746 47.8798 20.1194 47.0701 20.1194H41.3085C40.4988 20.1194 39.7461 20.7746 39.7461 21.5842Z" fill="#00730C"/>
<path d="M38.5756 17.1896C38.9814 17.8924 39.8797 18.1288 40.5768 17.726L45.6439 14.7964C46.3449 14.3915 46.5852 13.4961 46.1804 12.7951C45.7726 12.0913 44.8758 11.8552 44.1791 12.2587L39.112 15.1883C38.411 15.5932 38.1707 16.4887 38.5756 17.1896Z" fill="#00730C"/>
<path d="M37.4023 13.4271L40.233 8.35306C40.6379 7.65209 40.3975 6.75658 39.6966 6.35179C38.9956 5.94701 38.0987 6.18441 37.6953 6.88822L34.8646 11.9622C34.4598 12.6632 34.7001 13.5587 35.4011 13.9635C36.0996 14.367 36.9972 14.1287 37.4023 13.4271Z" fill="#00730C"/>
<path d="M1.00131 3.83254L8.98969 6.56086L11.1224 27.6819C12.9595 27.2857 13.7548 27.4988 14.0512 27.5213L11.8091 5.32355C11.7504 4.74992 11.3614 4.26359 10.8149 4.08186L1.92817 1.05451C1.15571 0.796992 0.331684 1.2133 0.0756291 1.9801C-0.180328 2.74826 0.234516 3.57795 1.00131 3.83254Z" fill="#00730C"/>
<path d="M32.0399 17.8549C29.1745 17.0881 27.2759 16.6147 26.0399 16.3285C24.7511 15.9924 23.3849 16.2756 22.3135 17.1038C21.7435 17.5446 21.3106 18.1082 21.019 18.7393C22.1364 18.6155 23.2844 18.6318 24.6037 18.9635L35.2543 21.6743L35.2797 21.6851C35.0967 19.8463 33.8347 18.2923 32.0399 17.8549Z" fill="#00730C"/>
</svg>
