<svg width="85" height="40" viewBox="0 0 85 40" fill="none" xmlns="http://www.w3.org/2000/svg">
<path d="M74.4309 14.7435C74.4224 15.1352 74.0697 15.4193 73.7176 15.3535C74.2014 15.4443 75.327 15.5714 75.9602 15.3535C75.5933 15.4103 75.2583 15.1232 75.2498 14.7405C75.2498 14.7613 75.0019 12.7308 75.9921 10.8528C76.84 9.2468 77.3117 9.41429 78.3048 9.02549C79.577 8.52607 80.8846 8.01174 81.782 6.89026C83.2469 5.05706 82.8594 2.54501 82.734 1.86616C81.1615 4.18383 79.5685 3.52591 77.9641 4.58157C76.3328 5.65517 75.6046 7.34781 75.7619 9.1601C77.3783 6.25926 79.4197 7.53625 81.5284 4.6354C81.0156 5.50864 80.3144 6.26824 79.4403 6.80952C78.1851 7.59901 77.5795 7.36876 75.6776 10.2038C75.3284 10.7242 75.0458 11.2923 74.8418 11.8875C74.6059 11.1997 74.2652 10.5387 73.8338 9.95858C72.9689 8.8012 72.5879 8.14629 71.8306 7.58709C70.7936 6.8155 69.0285 6.51944 67.6047 4.08514C69.9812 7.35981 72.2089 5.86451 74.0208 9.1212C74.2007 7.0577 73.3507 5.20061 71.5714 4.02832C69.7857 2.85304 68.0153 3.58572 66.265 1.00488C66.1252 1.76149 65.6942 4.55765 67.3251 6.5972C68.3206 7.84301 69.7673 8.4116 71.1783 8.96607L71.1924 8.97167C71.871 9.23785 73.6156 9.31858 74.2971 12.5095C74.4834 13.3947 74.4515 13.9061 74.4309 14.7435Z" fill="#00730C"/>
<path d="M1.87 30.051C0.661113 30.051 0.0566711 29.411 0.0566711 28.131V11.2001C0.0566711 9.93947 0.670562 9.30914 1.89834 9.30914H8.72667C10.9178 9.30914 12.6083 9.87154 13.7983 10.9964C14.9883 12.1213 15.5833 13.6922 15.5833 15.7091C15.5833 17.7261 14.9883 19.3067 13.7983 20.451C12.6083 21.5758 10.9178 22.1382 8.72667 22.1382H3.68334V28.131C3.68334 29.411 3.0789 30.051 1.87 30.051ZM3.68334 19.2001H8.16001C10.7667 19.2001 12.07 18.0364 12.07 15.7091C12.07 13.4013 10.7667 12.2473 8.16001 12.2473H3.68334V19.2001ZM22.9314 30.1091C19.777 30.1091 18.1998 28.2958 18.1998 24.6691V10.9091C18.1998 9.68733 18.7853 9.07642 19.9564 9.07642C21.1464 9.07642 21.7414 9.68733 21.7414 10.9091V24.4946C21.7414 26.2401 22.4498 27.1128 23.8664 27.1128C24.0175 27.1128 24.1592 27.1128 24.2914 27.1128C24.4236 27.0934 24.5559 27.074 24.688 27.0546C24.9525 27.0158 25.132 27.0934 25.2264 27.2873C25.3209 27.4619 25.3681 27.8304 25.3681 28.3928C25.3681 28.8777 25.2736 29.2558 25.0848 29.5273C24.8959 29.7988 24.5842 29.9637 24.1498 30.0219C23.7531 30.0801 23.347 30.1091 22.9314 30.1091ZM31.8093 30.1091C30.8082 30.1091 29.9109 29.9152 29.1176 29.5273C28.3432 29.1201 27.7293 28.577 27.2759 27.8982C26.8415 27.2195 26.6243 26.4534 26.6243 25.6001C26.6243 24.5528 26.8887 23.7286 27.4176 23.1273C27.9465 22.5067 28.8059 22.0606 29.9959 21.7891C31.1859 21.5177 32.782 21.3819 34.7843 21.3819H35.7759V20.771C35.7759 19.8013 35.5682 19.1031 35.1526 18.6764C34.737 18.2497 34.0382 18.0364 33.0559 18.0364C32.5082 18.0364 31.9132 18.1043 31.2709 18.2401C30.6476 18.3758 29.9865 18.6086 29.2876 18.9382C28.8343 19.1515 28.4565 19.1806 28.1543 19.0255C27.852 18.851 27.6443 18.5891 27.5309 18.2401C27.4365 17.8715 27.4554 17.5031 27.5876 17.1346C27.7387 16.7661 28.0315 16.4946 28.4659 16.3201C29.3349 15.9515 30.1659 15.6897 30.9593 15.5346C31.7715 15.3795 32.5082 15.3019 33.1693 15.3019C35.1904 15.3019 36.692 15.7867 37.6743 16.7564C38.6565 17.7067 39.1476 19.1904 39.1476 21.2073V28.1891C39.1476 29.4304 38.5999 30.051 37.5043 30.051C36.3899 30.051 35.8326 29.4304 35.8326 28.1891V27.5491C35.5115 28.3443 35.0015 28.9746 34.3026 29.4401C33.6037 29.8861 32.7726 30.1091 31.8093 30.1091ZM32.5459 27.6073C33.4715 27.6073 34.2365 27.2777 34.8409 26.6182C35.4643 25.9588 35.7759 25.1249 35.7759 24.1164V23.4764H34.8126C33.037 23.4764 31.7999 23.6219 31.1009 23.9128C30.4209 24.1843 30.0809 24.6886 30.0809 25.4255C30.0809 26.0655 30.2982 26.5891 30.7326 26.9964C31.167 27.4037 31.7715 27.6073 32.5459 27.6073ZM44.4991 30.051C43.328 30.051 42.7424 29.4304 42.7424 28.1891V17.1928C42.7424 15.971 43.3185 15.3601 44.4707 15.3601C45.623 15.3601 46.1991 15.971 46.1991 17.1928V17.8037C46.6713 16.9891 47.3041 16.3686 48.0974 15.9419C48.9096 15.5152 49.8163 15.3019 50.8174 15.3019C54.0852 15.3019 55.7191 17.251 55.7191 21.1491V28.1891C55.7191 29.4304 55.1335 30.051 53.9624 30.051C52.7724 30.051 52.1774 29.4304 52.1774 28.1891V21.3237C52.1774 20.2182 51.9696 19.4134 51.5541 18.9091C51.1574 18.4049 50.5341 18.1528 49.6841 18.1528C48.6451 18.1528 47.8141 18.4922 47.1907 19.171C46.5863 19.8304 46.2841 20.7128 46.2841 21.8182V28.1891C46.2841 29.4304 45.6891 30.051 44.4991 30.051ZM65.6629 30.1091C61.9985 30.1091 60.1663 28.2473 60.1663 24.5237V18.3273H58.6929C57.7485 18.3273 57.2763 17.8715 57.2763 16.9601C57.2763 16.0486 57.7485 15.5928 58.6929 15.5928H60.1663V12.9455C60.1663 11.7237 60.7613 11.1128 61.9513 11.1128C63.1224 11.1128 63.7079 11.7237 63.7079 12.9455V15.5928H66.7113C67.6558 15.5928 68.1279 16.0486 68.1279 16.9601C68.1279 17.8715 67.6558 18.3273 66.7113 18.3273H63.7079V24.3201C63.7079 25.251 63.9063 25.9491 64.3029 26.4146C64.6996 26.8801 65.3418 27.1128 66.2296 27.1128C66.5508 27.1128 66.8341 27.0837 67.0796 27.0255C67.3252 26.9673 67.5424 26.9286 67.7313 26.9091C67.9579 26.8897 68.1468 26.9673 68.2979 27.1419C68.4491 27.297 68.5246 27.6267 68.5246 28.131C68.5246 28.5188 68.4585 28.8679 68.3263 29.1782C68.2129 29.4691 67.9958 29.6728 67.6746 29.7891C67.4291 29.8667 67.1079 29.9346 66.7113 29.9928C66.3146 30.0704 65.9652 30.1091 65.6629 30.1091Z" fill="#0B0B0B"/>
<path d="M75.2618 30.109C74.4501 30.109 73.5902 30.0218 72.6835 29.8472C71.7768 29.6727 70.9651 29.3721 70.2468 28.9454C69.8502 28.7127 69.6051 28.4314 69.5102 28.1018C69.416 27.7527 69.4252 27.4327 69.5385 27.1418C69.6709 26.8314 69.8785 26.6084 70.1618 26.4727C70.4643 26.3369 70.8135 26.366 71.2102 26.5599C71.9659 26.9284 72.6743 27.1903 73.3352 27.3454C73.9967 27.4812 74.6484 27.549 75.2902 27.549C76.1968 27.549 76.8676 27.3939 77.3018 27.0836C77.7552 26.7539 77.9818 26.3272 77.9818 25.8036C77.9818 24.989 77.3967 24.4654 76.2252 24.2327L73.3918 23.6799C70.9934 23.2145 69.7935 21.9345 69.7935 19.8399C69.7935 18.909 70.0393 18.1042 70.5302 17.4254C71.0402 16.7466 71.7393 16.223 72.6268 15.8545C73.5151 15.486 74.5351 15.3018 75.6868 15.3018C77.3493 15.3018 78.8318 15.6799 80.1352 16.4363C80.4943 16.6303 80.7018 16.9018 80.7585 17.2508C80.8343 17.5805 80.7967 17.9005 80.6452 18.2108C80.5134 18.5018 80.296 18.7151 79.9935 18.8508C79.6917 18.9672 79.3418 18.9284 78.9452 18.7345C78.3601 18.4242 77.7934 18.2012 77.2452 18.0654C76.7167 17.9296 76.2067 17.8618 75.7152 17.8618C74.7901 17.8618 74.1002 18.0266 73.6468 18.3563C73.2126 18.686 72.9952 19.1223 72.9952 19.6654C72.9952 20.5187 73.5335 21.0423 74.6102 21.2363L77.4435 21.789C78.6717 22.0218 79.5968 22.4484 80.2202 23.069C80.8626 23.6896 81.1835 24.5236 81.1835 25.5708C81.1835 26.9866 80.6452 28.1018 79.5685 28.9163C78.4918 29.7114 77.0567 30.109 75.2618 30.109Z" fill="#00730C"/>
</svg>
