<svg width="48" height="38" viewBox="0 0 48 38" fill="none" xmlns="http://www.w3.org/2000/svg">
<path d="M40.8096 16.9316L46.6426 5.79591C47.1033 4.91547 47.1956 3.88809 46.899 2.93967C46.6024 1.99125 45.9412 1.19945 45.061 0.738399C44.1807 0.277345 43.1533 0.184783 42.2048 0.481068C41.2563 0.777353 40.4643 1.43823 40.0029 2.31836L34.1699 13.4541C33.8906 13.9841 33.7432 14.5737 33.7403 15.1728C33.7374 15.7719 33.8791 16.3628 34.1533 16.8955L32.3467 20.3457L29.8184 19.082C29.6396 18.9929 29.4335 18.9755 29.2423 19.0334C29.0511 19.0914 28.8893 19.2202 28.79 19.3936L23.9912 27.791C23.2694 29.0565 22.8809 30.4846 22.8623 31.9414C22.2402 31.6505 21.5618 31.4999 20.875 31.5C20.8418 31.5 20.8096 31.502 20.7764 31.5029C20.6028 30.8319 20.2116 30.2375 19.6639 29.8128C19.1162 29.3882 18.4431 29.1572 17.75 29.1562V22.9062H18.5312C20.8096 22.9036 22.9939 21.9973 24.605 20.3862C26.216 18.7752 27.1223 16.5909 27.125 14.3125V11.1875C27.1242 10.5662 26.877 9.97049 26.4376 9.53113C25.9983 9.09177 25.4026 8.84457 24.7812 8.84375H18.7266C17.3539 8.84051 15.9997 9.16043 14.7737 9.77763C13.5476 10.3948 12.484 11.292 11.6689 12.3965C10.7944 12.1125 9.88047 11.9681 8.96094 11.9688H2.90625C2.2849 11.9696 1.68924 12.2168 1.24988 12.6561C0.810519 13.0955 0.563324 13.6912 0.5625 14.3125V17.4375C0.565188 19.7159 1.47146 21.9002 3.08252 23.5112C4.69358 25.1223 6.87787 26.0286 9.15625 26.0312H13.0625V29.2549C12.5217 29.3956 12.0284 29.6785 11.6338 30.0742C11.2204 29.9477 10.7852 29.9084 10.3558 29.9587C9.92635 30.0091 9.51205 30.1479 9.13905 30.3665C8.76605 30.5852 8.44246 30.8788 8.18875 31.2289C7.93503 31.579 7.7567 31.9779 7.66504 32.4004C7.26425 32.2864 6.8447 32.2538 6.4311 32.3044C6.0175 32.355 5.61821 32.4879 5.25675 32.6952C4.89529 32.9025 4.57896 33.18 4.3264 33.5115C4.07383 33.8429 3.89014 34.2215 3.78613 34.625H2.125V36.1875H4.46875C4.57135 36.1875 4.67296 36.1673 4.76775 36.1281C4.86255 36.0888 4.94869 36.0313 5.02124 35.9587C5.09379 35.8862 5.15133 35.8 5.19059 35.7053C5.22984 35.6105 5.25003 35.5089 5.25 35.4062C5.25 34.9918 5.41462 34.5944 5.70765 34.3014C6.00067 34.0084 6.3981 33.8438 6.8125 33.8438C7.2269 33.8438 7.62433 34.0084 7.91735 34.3014C8.21038 34.5944 8.375 34.9918 8.375 35.4062H9.9375C9.93799 34.6635 9.67264 33.945 9.18946 33.3809C9.1418 33.1535 9.14548 32.9184 9.20024 32.6927C9.255 32.467 9.35946 32.2563 9.50599 32.0761C9.65252 31.8959 9.83744 31.7506 10.0473 31.651C10.2571 31.5513 10.4865 31.4997 10.7187 31.5C10.752 31.5 10.7842 31.5029 10.8164 31.5049C11.2125 31.5306 11.584 31.7057 11.8559 31.9949C12.1278 32.284 12.2799 32.6656 12.2812 33.0625H13.8437C13.8441 32.2818 13.5513 31.5293 13.0234 30.9541C13.3045 30.7789 13.6342 30.698 13.9645 30.7233C14.2947 30.7486 14.6083 30.8787 14.8594 31.0947C14.7045 31.4711 14.6249 31.8742 14.625 32.2812H16.1875C16.1873 31.9094 16.3198 31.5497 16.5612 31.2668C16.8025 30.984 17.1369 30.7965 17.5041 30.7381C17.8713 30.6797 18.2474 30.7543 18.5645 30.9484C18.8817 31.1424 19.1192 31.4433 19.2344 31.7969C18.3403 32.1321 17.5697 32.7319 17.0253 33.5164C16.4809 34.3008 16.1887 35.2327 16.1875 36.1875H17.75C17.7498 35.5419 17.9496 34.9122 18.322 34.3848C18.6943 33.8574 19.2208 33.4584 19.8292 33.2424C20.4376 33.0265 21.0979 33.0044 21.7194 33.179C22.3409 33.3537 22.893 33.7166 23.2998 34.2178C22.8032 34.4855 22.3883 34.8825 22.099 35.3668C21.8096 35.8511 21.6567 36.4046 21.6562 36.9688H23.2187C23.2187 36.5543 23.3834 36.1569 23.6764 35.8639C23.9694 35.5709 24.3668 35.4062 24.7812 35.4062C25.1956 35.4062 25.5931 35.5709 25.8861 35.8639C26.1791 36.1569 26.3437 36.5543 26.3437 36.9688H27.9062C27.9064 36.5178 27.8085 36.0723 27.6191 35.6631C27.9498 35.4941 28.3158 35.4061 28.6871 35.4062C29.0584 35.4064 29.4244 35.4948 29.7549 35.6641C29.5663 36.0732 29.4687 36.5183 29.4687 36.9688H31.0312C31.0312 36.5543 31.1959 36.1569 31.4889 35.8639C31.7819 35.5709 32.1793 35.4062 32.5937 35.4062C33.0081 35.4062 33.4056 35.5709 33.6986 35.8639C33.9916 36.1569 34.1562 36.5543 34.1562 36.9688H35.7187C35.7189 36.5617 35.6392 36.1586 35.4844 35.7822C35.7112 35.5878 35.989 35.4625 36.2849 35.4212C36.5808 35.3799 36.8823 35.4244 37.1537 35.5493C37.4251 35.6742 37.6549 35.8743 37.816 36.1259C37.9771 36.3775 38.0626 36.67 38.0625 36.9688C38.0625 37.0714 38.0827 37.173 38.1219 37.2678C38.1612 37.3625 38.2187 37.4487 38.2913 37.5212C38.3638 37.5938 38.4499 37.6513 38.5447 37.6906C38.6395 37.7298 38.7411 37.75 38.8437 37.75H45.0937V36.1875H39.5264C39.4099 35.7362 39.194 35.3166 38.8944 34.9596C38.5947 34.6026 38.219 34.3171 37.7948 34.1241C37.3705 33.9311 36.9084 33.8355 36.4424 33.8443C35.9764 33.8531 35.5183 33.966 35.1016 34.1748C35.2917 33.8729 35.4629 33.5595 35.6143 33.2363L39.5518 24.7988C39.6376 24.6143 39.6481 24.4037 39.5812 24.2115C39.5143 24.0194 39.3752 23.8608 39.1934 23.7695L36.25 22.2979L38.0332 18.8935C38.6177 18.808 39.1737 18.5857 39.6562 18.2448C40.1386 17.9039 40.5337 17.454 40.8096 16.9316ZM16.1875 29.5772C16.0515 29.6558 15.9216 29.7446 15.7988 29.8428C15.4535 29.5663 15.0534 29.3663 14.625 29.2559V25.25C14.625 25.1474 14.6048 25.0458 14.5656 24.951C14.5263 24.8562 14.4688 24.7701 14.3962 24.6975C14.3237 24.625 14.2376 24.5674 14.1428 24.5282C14.048 24.4889 13.9464 24.4687 13.8437 24.4688H12.2812C10.4171 24.4666 8.62992 23.7251 7.31177 22.407C5.99362 21.0888 5.25214 19.3016 5.25 17.4375V16.6562H3.6875V17.4375C3.68726 18.7056 3.96809 19.9579 4.50979 21.1045C5.05149 22.251 5.84059 23.2633 6.82032 24.0683C5.44859 23.5835 4.2607 22.6857 3.41993 21.4984C2.57916 20.311 2.12679 18.8924 2.125 17.4375V14.3125C2.12527 14.1054 2.20767 13.9068 2.35412 13.7604C2.50058 13.6139 2.69913 13.5315 2.90625 13.5313H8.96094C10.8768 13.5335 12.7136 14.2956 14.0684 15.6504C15.4231 17.0051 16.1852 18.8419 16.1875 20.7578V29.5772ZM13.1523 13.0342C13.8286 12.2104 14.6796 11.5473 15.6437 11.0928C16.6077 10.6383 17.6607 10.4038 18.7266 10.4063H24.7812C24.9884 10.4065 25.1869 10.4889 25.3334 10.6354C25.4798 10.7818 25.5622 10.9804 25.5625 11.1875V14.3125C25.5607 15.7681 25.1079 17.1873 24.2664 18.3749C23.4249 19.5625 22.2359 20.4602 20.8633 20.9443C21.8421 20.138 22.6307 19.1254 23.1729 17.979C23.7152 16.8326 23.9976 15.5807 24 14.3125V13.5313H22.4375V14.3125C22.4342 15.766 21.9821 17.1829 21.1431 18.3698C20.3041 19.5566 19.1191 20.4554 17.75 20.9433V20.7578C17.7489 19.176 17.3213 17.6237 16.5121 16.2644C15.703 14.9052 14.5423 13.7893 13.1523 13.0342ZM37.8144 24.8271L34.1982 32.5762C33.9718 33.061 33.6907 33.5184 33.3604 33.9395C32.9171 33.827 32.4544 33.8135 32.0053 33.8999C31.5562 33.9863 31.1316 34.1705 30.7617 34.4395C30.1403 34.0493 29.4212 33.8428 28.6875 33.8438C28.6524 33.8438 28.6172 33.8457 28.582 33.8467L30.9355 29.5303L29.5645 28.7822L26.5156 34.3711C26.0469 34.0565 25.5013 33.8755 24.9375 33.8477C24.816 33.6364 24.6782 33.4349 24.5254 33.2451C24.2483 31.6373 24.5393 29.9831 25.3486 28.5664L29.7803 20.8105L31.6211 21.7305L30.1435 24.5518C30.0104 24.8056 29.9286 25.0831 29.9028 25.3686C29.877 25.654 29.9076 25.9417 29.993 26.2153C30.0784 26.4889 30.2169 26.7429 30.4005 26.963C30.5841 27.1831 30.8092 27.3648 31.0631 27.4978C31.317 27.6308 31.5945 27.7125 31.88 27.7382C32.1654 27.764 32.4531 27.7332 32.7267 27.6477C33.0002 27.5622 33.2542 27.4237 33.4742 27.24C33.6942 27.0563 33.8759 26.831 34.0088 26.5771L35.5244 23.6826L37.8144 24.8271ZM32.625 25.8516C32.5722 25.9521 32.4928 26.0363 32.3956 26.095C32.2983 26.1537 32.1868 26.1847 32.0732 26.1846C31.9517 26.1845 31.8331 26.1481 31.7324 26.0801C31.6046 25.9957 31.5128 25.8667 31.4749 25.7183C31.437 25.5699 31.4557 25.4127 31.5273 25.2773L35.2402 18.1875C35.479 18.3678 35.7387 18.5187 36.0137 18.6367C36.1203 18.6828 36.2291 18.7236 36.3398 18.7588L32.625 25.8516ZM36.6289 17.2012C36.3521 17.0824 36.1029 16.9076 35.8969 16.688C35.6908 16.4683 35.5324 16.2084 35.4316 15.9246C35.3307 15.6408 35.2896 15.3392 35.3108 15.0388C35.3319 14.7383 35.415 14.4455 35.5547 14.1787L41.3877 3.04298C41.6448 2.55748 42.0746 2.18603 42.5922 2.00197C43.1099 1.81791 43.6777 1.83463 44.1836 2.04882C44.4603 2.16764 44.7096 2.34237 44.9156 2.56205C45.1216 2.78173 45.2801 3.04162 45.3809 3.32541C45.4818 3.6092 45.5229 3.91078 45.5017 4.21122C45.4805 4.51166 45.3975 4.80447 45.2578 5.0713L39.4248 16.207C39.1677 16.6925 38.7379 17.064 38.2203 17.248C37.7026 17.4321 37.1348 17.4154 36.6289 17.2012H36.6289Z" fill="#00730C"/>
</svg>
