<svg width="50" height="50" viewBox="0 0 50 50" fill="none" xmlns="http://www.w3.org/2000/svg">
<g clip-path="url(#clip0_2060_22742)">
<path d="M26.7429 45.6053C26.6823 45.5532 26.6222 45.5005 26.5625 45.4473V45.6387C26.6228 45.6276 26.6829 45.6165 26.7429 45.6053Z" fill="#00730C"/>
<path d="M49.2064 0.000491698C49.1647 0.00117529 44.9646 0.0750033 39.2722 0.835648C38.6179 0.92305 38.3601 1.7835 38.8775 2.21182C41.2729 4.19502 38.1933 8.98311 35.2929 6.33926C35.1585 6.22019 34.9871 6.15111 34.8076 6.1437C34.6282 6.13628 34.4517 6.19097 34.3079 6.29854C33.235 7.07823 31.6445 7.23955 30.4366 6.69043C30.2509 6.60598 30.0395 6.59752 29.8476 6.66687C29.6558 6.73621 29.4986 6.87786 29.4098 7.06153C28.1392 9.68994 23.6752 8.59365 24.2578 5.40274C24.2793 5.26877 24.2661 5.13151 24.2193 5.00414C24.1725 4.87678 24.0937 4.76359 23.9905 4.67547C23.8874 4.58734 23.7632 4.52724 23.6301 4.50094C23.497 4.47464 23.3594 4.48303 23.2304 4.5253C19.4762 5.84366 16.2187 7.49619 13.5498 9.43828C13.4634 9.50052 13.3905 9.5796 13.3355 9.67076C13.2805 9.76192 13.2446 9.86327 13.2298 9.9687C13.215 10.0741 13.2218 10.1815 13.2496 10.2842C13.2774 10.387 13.3258 10.483 13.3917 10.5666C14.9185 12.466 13.3654 15.6499 10.9479 15.6252C10.7395 15.6247 10.5393 15.7067 10.3911 15.8532C10.2429 15.9998 10.1587 16.199 10.1569 16.4074C10.1592 18.3583 8.17309 19.9057 6.29497 19.4433C6.10826 19.3972 5.91112 19.4216 5.74128 19.5118C5.57143 19.602 5.44083 19.7516 5.37446 19.9321C2.67768 27.2669 4.50766 35.3082 6.68305 41.1079L0.457566 47.3325C-0.908255 48.6867 1.1396 51.0655 2.66733 49.5423L8.93686 43.2728C11.9357 44.1983 18.455 45.9131 21.8748 46.0212V42.9687C21.8666 42.1157 22.4216 41.451 23.0065 40.8661C23.676 40.1966 22.6392 39.2561 22.0299 39.8779L21.1882 40.7196C19.1258 42.8209 15.659 39.6181 17.8738 37.4051L19.5312 35.7479V32.8124C19.5297 32.3768 19.6503 31.9495 19.8794 31.579C20.1084 31.2084 20.4366 30.9095 20.8269 30.716C21.7913 30.234 22.9601 29.7835 23.4576 28.7359C23.7187 28.2227 23.8305 27.6464 23.7803 27.0727C23.73 26.499 23.5197 25.951 23.1734 25.4909C22.6132 24.7404 22.6558 23.2633 22.6558 22.3479C22.6558 21.8673 22.5371 21.3941 22.3103 20.9704C22.0836 20.5466 21.7557 20.1854 21.3558 19.9188C18.7098 18.1692 21.4621 14.3426 23.9562 16.0188C24.1357 16.1385 24.3447 16.2064 24.5603 16.2152C24.7759 16.224 24.9898 16.1733 25.1785 16.0686C25.3671 15.9639 25.5233 15.8093 25.6299 15.6217C25.7366 15.4341 25.7895 15.2208 25.7829 15.0051C25.7821 14.9807 25.7816 14.9565 25.7813 14.9326C25.7454 11.7508 30.4688 11.7836 30.4688 14.8437C30.4688 16.2694 32.0313 17.9687 34.375 17.9687C36.7188 17.9687 38.2813 16.029 38.2813 14.8437C38.2813 11.6541 42.9688 11.8723 42.9688 14.8437C42.9688 14.8546 42.9688 14.8656 42.9688 14.8766C42.9669 15.0871 43.0192 15.2947 43.1205 15.4792C43.2219 15.6638 43.369 15.8193 43.5476 15.9307C43.7263 16.0422 43.9306 16.1058 44.141 16.1156C44.3514 16.1254 44.5607 16.081 44.749 15.9867C45.9975 15.3715 47.4952 15.5457 48.1834 16.9076C49.2194 11.548 49.7537 6.00782 49.9993 0.818753C50.0029 0.712449 49.9851 0.606498 49.9469 0.507237C49.9087 0.407976 49.8508 0.317443 49.7768 0.241055C49.7028 0.164666 49.6141 0.10399 49.5161 0.062656C49.4181 0.021322 49.3128 0.000179063 49.2064 0.000491698Z" fill="#00730C"/>
<path d="M49.7711 38.5099L47.6562 36.395V32.8123C47.6562 32.6672 47.6158 32.525 47.5395 32.4016C47.4632 32.2782 47.3541 32.1785 47.2243 32.1136L44.4042 30.7029C44.0894 29.0748 43.2096 27.6102 41.9201 26.5676L44.2187 24.8436C44.3157 24.7708 44.3945 24.6764 44.4487 24.5679C44.503 24.4595 44.5312 24.3398 44.5312 24.2186V19.9491L46.5271 18.6186C47.3161 18.0919 46.5434 16.7167 45.6604 17.3185L43.3166 18.881C43.2096 18.9524 43.1219 19.049 43.0612 19.1624C43.0005 19.2758 42.9687 19.4024 42.9687 19.5311V23.8279L40.5049 25.6758C40.2651 25.5624 40.019 25.4627 39.7679 25.3772L39.2785 23.3787C38.9837 22.1672 38.25 21.1081 37.2195 20.4062C39.2888 19.0565 41.4062 17.6008 41.4062 14.8435C41.4062 13.8768 39.8437 13.7917 39.8437 14.8435C39.8437 17.5682 37.3496 18.4333 35.5083 19.6595C34.7621 19.4909 33.9877 19.4909 33.2415 19.6595C31.4348 18.4561 28.9062 17.4893 28.9062 14.8435C28.9062 13.8768 27.3437 13.7916 27.3437 14.8435C27.3437 17.7004 29.3697 19.0144 31.5286 20.4074C30.4989 21.1093 29.766 22.1679 29.4714 23.3787L28.982 25.3773C28.7308 25.4628 28.4848 25.5625 28.245 25.6759L25.7812 23.8279V19.5311C25.7812 19.4024 25.7494 19.2758 25.6888 19.1624C25.6281 19.049 25.5404 18.9524 25.4333 18.881L23.0896 17.3185C22.2256 16.7303 21.4099 18.0882 22.2229 18.6186L24.2187 19.9491V24.2186C24.2187 24.3398 24.2469 24.4595 24.3012 24.5679C24.3554 24.6764 24.4342 24.7708 24.5312 24.8436L26.8303 26.5679C25.5409 27.6104 24.6611 29.0749 24.3461 30.7029L21.5255 32.1133C21.3957 32.1782 21.2866 32.278 21.2103 32.4014C21.134 32.5249 21.0937 32.6672 21.0937 32.8123V36.395L18.9788 38.5099C18.3204 39.1556 19.3028 40.3918 20.0836 39.6147L22.4274 37.271C22.4999 37.1984 22.5575 37.1123 22.5967 37.0175C22.636 36.9227 22.6562 36.8211 22.6562 36.7186V33.2951L24.2187 32.5616C25.3417 30.7303 27.5041 29.6873 30.4687 29.6873H38.2812C41.2457 29.6873 43.4086 30.7303 44.5312 32.5616V32.5139L46.0937 33.2951V36.7186C46.0937 36.8211 46.1139 36.9227 46.1531 37.0175C46.1924 37.1123 46.2499 37.1984 46.3225 37.271L48.6662 39.6147C49.3631 40.3237 50.4872 39.2138 49.7711 38.5099Z" fill="#00730C"/>
<path d="M30.4688 31.25V40.241C30.4688 42.6108 31.447 45.0091 33.0617 46.7883C33.2375 46.8111 33.4152 46.8284 33.5938 46.8421V31.25H30.4688Z" fill="#00730C"/>
<path d="M38.2812 31.25H35.1562V46.8421C35.3348 46.8284 35.5123 46.8111 35.6882 46.7883C37.303 45.0091 38.2812 42.6108 38.2812 40.241V31.25Z" fill="#00730C"/>
<path d="M28.9062 40.241V31.3901C26.6992 31.8025 25.1279 33.0971 24.2187 34.8569V36.7188C24.2171 38.1767 24.5315 39.6177 25.1401 40.9426L23.6663 42.4163C23.5937 42.4889 23.5362 42.575 23.4969 42.6698C23.4577 42.7646 23.4375 42.8662 23.4375 42.9688V46.5515L21.3225 48.6663C20.6697 49.3056 21.6419 50.5527 22.4274 49.7712L24.7712 47.4275C24.8437 47.3549 24.9012 47.2688 24.9405 47.174C24.9798 47.0792 25 46.9776 25 46.875V43.2923L25.9336 42.3587C27.0846 44.0759 28.7297 45.4035 30.6512 46.1659C29.544 44.3832 28.9062 42.3033 28.9062 40.241Z" fill="#00730C"/>
<path d="M47.4273 48.6661L45.3124 46.5513V42.9686C45.3124 42.866 45.2922 42.7644 45.2529 42.6696C45.2137 42.5748 45.1561 42.4887 45.0836 42.4161L43.6098 40.9424C44.2184 39.6175 44.5327 38.1765 44.5312 36.7186V34.8564C43.622 33.0969 42.0507 31.8023 39.8437 31.3896V40.2405C39.8437 42.3028 39.2059 44.3827 38.0986 46.1654C40.0203 45.403 41.6653 44.0755 42.8163 42.3582L43.7499 43.2918V46.8748C43.7499 46.9774 43.7701 47.079 43.8094 47.1738C43.8486 47.2686 43.9062 47.3547 43.9787 47.4272L46.3225 49.771C47.0193 50.4799 48.1435 49.37 47.4273 48.6661Z" fill="#00730C"/>
</g>
<defs>
<clipPath id="clip0_2060_22742">
<rect width="50" height="50" fill="white"/>
</clipPath>
</defs>
</svg>
