<svg width="50" height="50" viewBox="0 0 50 50" fill="none" xmlns="http://www.w3.org/2000/svg">
<path d="M30.0158 7.23047C30.2637 7.04302 30.5759 6.96173 30.8838 7.00448C31.0362 7.02565 31.183 7.07664 31.3157 7.15453C31.4484 7.23242 31.5645 7.33569 31.6573 7.45845C31.7501 7.5812 31.8179 7.72104 31.8566 7.86997C31.8954 8.0189 31.9045 8.17401 31.8833 8.32644C31.8621 8.47887 31.8112 8.62564 31.7333 8.75837C31.6554 8.8911 31.5521 9.00718 31.4293 9.1C29.6927 10.5313 28.2149 12.2503 27.0602 14.1819C26.943 14.3798 26.8321 14.5785 26.7248 14.7776C27.5805 14.6782 28.4308 14.536 29.2723 14.3516C31.74 13.7959 33.675 12.2661 34.4487 10.2598L37.1182 3.33594C32.9807 3.53506 29.4726 4.94971 27.4178 7.26856C26.1351 8.71602 25.4549 10.449 25.3845 12.4335C27.4391 9.20068 29.9064 7.31318 30.0158 7.23047Z" fill="#00730C"/>
<path d="M28.8423 24.4434C31.2081 24.6428 33.271 24.0235 34.9792 22.5958C37.3569 20.609 38.8734 17.144 39.1932 13.0139L32.1941 15.481C30.1657 16.1959 28.5809 18.0857 27.9531 20.5361C27.8043 21.1176 27.6712 21.7568 27.5537 22.4458L32.749 17.6954C32.8625 17.5909 32.9955 17.5098 33.1403 17.4569C33.2852 17.4039 33.4391 17.38 33.5931 17.3866C33.7472 17.3933 33.8985 17.4302 34.0383 17.4955C34.1781 17.5607 34.3036 17.6528 34.4077 17.7667C34.5117 17.8805 34.5923 18.0137 34.6448 18.1588C34.6973 18.3038 34.7206 18.4578 34.7134 18.6119C34.7063 18.7659 34.6688 18.9171 34.6031 19.0566C34.5374 19.1962 34.4448 19.3214 34.3306 19.425L28.8423 24.4434Z" fill="#00730C"/>
<path d="M19.9642 21.8489C19.519 21.0167 19.0262 20.211 18.488 19.4357L15.5892 15.2698C15.4116 15.0147 15.3427 14.6995 15.3976 14.3936C15.4524 14.0877 15.6266 13.8161 15.8817 13.6385C16.1368 13.461 16.452 13.3921 16.7579 13.4469C17.0638 13.5018 17.3355 13.6759 17.513 13.9311L20.412 18.097C20.7392 18.5674 21.0522 19.051 21.3509 19.5478C20.9876 13.3647 16.9749 8.32314 11.855 7.75488L12.5656 13.407C12.9273 16.7305 15.0788 20.4967 19.9642 21.8489Z" fill="#00730C"/>
<path d="M42.7187 43.7292C42.5668 43.5978 42.3884 43.5006 42.1956 43.4443C42.0028 43.388 41.8002 43.3739 41.6015 43.403C34.9968 44.3678 25.1659 43.7656 19.186 40.1641C18.6418 39.8363 18.1666 39.5533 17.8459 39.3672C16.8552 38.7929 15.8121 38.3143 14.7307 37.9377C13.4332 37.4856 12.069 37.2552 10.695 37.2561C10.1035 37.2561 9.07393 37.3006 8.08516 37.4003C7.73983 37.4344 7.41986 37.5968 7.18852 37.8555C6.95718 38.1141 6.83133 38.4501 6.83584 38.7971V38.8249C6.83121 39.0182 6.8676 39.2103 6.94261 39.3886C7.01761 39.5668 7.12953 39.7272 7.271 39.859C7.41009 39.9911 7.57584 40.0918 7.7571 40.1544C7.93837 40.2171 8.13094 40.2402 8.32188 40.2222C9.13682 40.1508 10.0423 40.1065 10.6852 40.1065C12.1699 40.1055 13.6443 40.3543 15.0466 40.8424C16.1874 41.2393 17.2878 41.7439 18.3329 42.3495C18.6583 42.538 19.1396 42.824 19.6884 43.1544C25.4172 46.6049 35.2687 47.2853 42.0397 46.1737C42.3016 46.1284 42.5453 46.0097 42.7424 45.8314C42.9394 45.6531 43.0818 45.4225 43.1529 45.1664C43.2241 44.9103 43.221 44.6393 43.1442 44.3849C43.0673 44.1305 42.9198 43.9031 42.7187 43.7292H42.7187ZM20.4318 42.4624C20.3696 42.5759 20.2648 42.6601 20.1404 42.6963C20.0161 42.7326 19.8825 42.718 19.7689 42.6557C19.569 42.546 19.3723 42.4331 19.1843 42.3198C19.0734 42.2529 18.9935 42.1448 18.9624 42.0191C18.9312 41.8934 18.9513 41.7604 19.0181 41.6495C19.085 41.5386 19.1931 41.4588 19.3188 41.4276C19.4445 41.3965 19.5775 41.4165 19.6884 41.4833C19.865 41.5898 20.0497 41.6961 20.2385 41.7995C20.352 41.8617 20.4362 41.9665 20.4724 42.0909C20.5087 42.2152 20.4941 42.3488 20.4318 42.4624ZM33.0419 45.9082C33.0328 45.9082 33.0236 45.9082 33.0145 45.9076C28.7108 45.6707 24.7906 44.8617 21.6796 43.5681C21.6199 43.5438 21.5656 43.508 21.5198 43.4626C21.4741 43.4172 21.4377 43.3633 21.4129 43.3038C21.3881 43.2443 21.3753 43.1805 21.3753 43.1161C21.3753 43.0516 21.388 42.9878 21.4127 42.9283C21.4375 42.8688 21.4738 42.8148 21.5195 42.7694C21.5652 42.724 21.6195 42.6881 21.6791 42.6637C21.7388 42.6394 21.8027 42.6271 21.8671 42.6275C21.9316 42.628 21.9953 42.6412 22.0546 42.6665C25.0649 43.918 28.8735 44.7017 33.0686 44.9327C33.1957 44.9394 33.3152 44.9955 33.4015 45.0891C33.4879 45.1826 33.5343 45.3062 33.5308 45.4334C33.5274 45.5607 33.4744 45.6816 33.3831 45.7703C33.2918 45.8591 33.1695 45.9087 33.0422 45.9085L33.0419 45.9082Z" fill="#00730C"/>
<path d="M24.3832 28.1242C24.3113 28.325 24.2465 28.5246 24.1862 28.724C23.4224 25.0047 21.9304 21.4757 19.851 18.4876L16.9521 14.3217C16.8782 14.2154 16.765 14.1429 16.6375 14.12C16.5101 14.0971 16.3787 14.1258 16.2724 14.1998C16.1661 14.2738 16.0935 14.387 16.0707 14.5144C16.0478 14.6419 16.0765 14.7732 16.1505 14.8795L19.0493 19.0454C21.1516 22.0662 22.6333 25.6629 23.3344 29.4467C23.498 30.3298 23.6323 31.1982 23.737 32.0419C23.753 32.4404 23.7969 32.8373 23.8683 33.2296H23.8709C23.8719 33.2351 23.874 33.24 23.8752 33.2455C23.2964 33.4439 22.7311 33.6644 22.1857 33.9072C21.8996 34.0341 21.6141 34.1671 21.3368 34.3015C18.5658 35.6446 16.411 36.0372 13.9161 36.4922C13.7679 36.5192 13.6189 36.5464 13.4692 36.5739C14.0037 36.6884 14.5306 36.8359 15.0469 37.0155C16.1877 37.4124 17.2881 37.917 18.3332 38.5224C18.6586 38.7111 19.1399 38.997 19.6887 39.3275C23.6098 41.6895 31.746 43.6524 40.601 42.5527L37.999 37.0785C37.6603 36.3595 37.2364 35.6838 36.7363 35.0661C35.6997 33.7965 34.548 33.0914 32.7634 32.6344L32.5231 32.5863C31.4913 32.381 30.4418 32.2779 29.3897 32.2785C28.0142 32.2762 26.6443 32.4535 25.3146 32.8058C25.1486 32.8501 24.984 32.8968 24.8198 32.9448C24.7879 32.6198 24.7516 32.2907 24.7107 31.9576C24.6712 30.8392 24.8691 29.6649 25.3027 28.4528C25.8779 26.8246 26.8408 25.361 28.1082 24.1882L33.8693 18.9203C33.9648 18.8328 34.0216 18.7111 34.0273 18.5818C34.033 18.4525 33.9872 18.3263 33.8998 18.2307C33.8125 18.1352 33.6908 18.0783 33.5615 18.0725C33.4323 18.0666 33.3059 18.1123 33.2103 18.1996L27.4492 23.4678C26.5576 24.2883 25.8026 25.2459 25.2129 26.3043C24.3995 24.1147 24.1239 21.9035 24.3952 19.7184C24.6425 17.7271 25.3412 15.7474 26.4722 13.8342C28.4129 10.5512 30.9861 8.57877 31.0175 8.55484C31.1196 8.47633 31.1866 8.36065 31.2038 8.23299C31.221 8.10533 31.1871 7.97604 31.1094 7.87328C31.0317 7.77052 30.9166 7.70262 30.7891 7.68437C30.6616 7.66612 30.532 7.699 30.4286 7.77584C30.3179 7.85963 27.6922 9.86568 25.649 13.3079C23.7604 16.4892 22.0606 21.5235 24.6339 27.4829C24.5446 27.6937 24.461 27.9075 24.3832 28.1242ZM21.1586 38.1846C20.9219 38.1846 20.6905 38.1144 20.4938 37.9829C20.297 37.8515 20.1436 37.6646 20.053 37.4459C19.9624 37.2272 19.9387 36.9866 19.9849 36.7545C20.0311 36.5223 20.1451 36.3091 20.3124 36.1418C20.4798 35.9744 20.693 35.8604 20.9251 35.8143C21.1573 35.7681 21.3979 35.7918 21.6165 35.8824C21.8352 35.9729 22.0221 36.1263 22.1536 36.3231C22.2851 36.5199 22.3553 36.7513 22.3553 36.9879C22.3549 37.3052 22.2287 37.6094 22.0044 37.8337C21.78 38.0581 21.4759 38.1843 21.1586 38.1846ZM36.9789 39.7713C37.127 39.7713 37.2718 39.8151 37.395 39.8973C37.5182 39.9796 37.6142 40.0965 37.6709 40.2333C37.7276 40.3701 37.7425 40.5206 37.7137 40.6659C37.6848 40.8112 37.6136 40.9446 37.5089 41.0494C37.4042 41.1541 37.2708 41.2255 37.1255 41.2544C36.9803 41.2833 36.8297 41.2685 36.6929 41.2118C36.556 41.1552 36.4391 41.0592 36.3568 40.9361C36.2745 40.8129 36.2306 40.6682 36.2306 40.5201C36.2308 40.3216 36.3097 40.1312 36.4501 39.9909C36.5905 39.8505 36.7808 39.7715 36.9793 39.7713H36.9789ZM33.3875 35.7967C33.5903 35.7967 33.7885 35.8569 33.9572 35.9695C34.1258 36.0822 34.2572 36.2424 34.3348 36.4297C34.4124 36.6171 34.4328 36.8233 34.3932 37.0222C34.3536 37.2211 34.256 37.4038 34.1126 37.5472C33.9692 37.6906 33.7864 37.7882 33.5875 37.8278C33.3886 37.8674 33.1825 37.8471 32.9951 37.7695C32.8077 37.6918 32.6476 37.5604 32.5349 37.3918C32.4222 37.2232 32.3621 37.0249 32.3621 36.8221C32.3624 36.5502 32.4706 36.2895 32.6629 36.0973C32.8552 35.905 33.116 35.7969 33.3879 35.7967H33.3875ZM29.8634 39.1529C30.0913 39.1529 30.3141 39.2205 30.5036 39.3471C30.6931 39.4737 30.8408 39.6537 30.928 39.8642C31.0152 40.0748 31.038 40.3065 30.9936 40.53C30.9491 40.7536 30.8394 40.9589 30.6782 41.1201C30.517 41.2812 30.3117 41.391 30.0882 41.4354C29.8647 41.4799 29.633 41.4571 29.4224 41.3699C29.2118 41.2826 29.0319 41.1349 28.9052 40.9454C28.7786 40.7559 28.711 40.5331 28.711 40.3052C28.7114 39.9997 28.8329 39.7068 29.0489 39.4908C29.265 39.2747 29.5579 39.1532 29.8634 39.1529ZM27.7878 33.5539C27.988 33.5538 28.1838 33.6132 28.3503 33.7244C28.5168 33.8357 28.6466 33.9938 28.7232 34.1788C28.7998 34.3638 28.8199 34.5673 28.7809 34.7637C28.7418 34.9601 28.6454 35.1405 28.5038 35.2821C28.3622 35.4237 28.1818 35.5201 27.9854 35.5592C27.789 35.5983 27.5855 35.5782 27.4005 35.5016C27.2155 35.425 27.0574 35.2952 26.9461 35.1287C26.8349 34.9622 26.7755 34.7665 26.7755 34.5663C26.7758 34.2979 26.8825 34.0406 27.0723 33.8508C27.2621 33.661 27.5194 33.5542 27.7878 33.5539ZM25.7745 37.0044C25.9111 37.0044 26.0446 37.0449 26.1582 37.1208C26.2717 37.1967 26.3602 37.3046 26.4125 37.4307C26.4647 37.5569 26.4784 37.6958 26.4518 37.8297C26.4251 37.9637 26.3593 38.0867 26.2628 38.1833C26.1662 38.2799 26.0431 38.3456 25.9092 38.3722C25.7752 38.3989 25.6364 38.3852 25.5102 38.3329C25.384 38.2806 25.2762 38.1921 25.2003 38.0785C25.1244 37.965 25.084 37.8315 25.084 37.6949C25.0842 37.5118 25.157 37.3363 25.2865 37.2069C25.4159 37.0774 25.5914 37.0046 25.7745 37.0044Z" fill="#00730C"/>
</svg>
