<svg width="16" height="16" viewBox="0 0 16 16" fill="none" xmlns="http://www.w3.org/2000/svg">
<path d="M14.9999 7H9.00006V0.999939C9.00006 0.448059 8.552 0 7.99994 0C7.44806 0 7 0.448059 7 0.999939V7H0.999939C0.448059 7 0 7.44806 0 7.99994C0 8.552 0.448059 9.00006 0.999939 9.00006H7V14.9999C7 15.552 7.44806 16.0001 7.99994 16.0001C8.552 16.0001 9.00006 15.552 9.00006 14.9999V9.00006H14.9999C15.552 9.00006 16.0001 8.552 16.0001 7.99994C16.0001 7.44806 15.552 7 14.9999 7Z" fill="#212529"/>
</svg>
