<svg width="30" height="30" viewBox="0 0 30 30" fill="none" xmlns="http://www.w3.org/2000/svg">
<mask id="mask0_2127_29292" style="mask-type:alpha" maskUnits="userSpaceOnUse" x="2" y="4" width="25" height="25">
<rect x="2.76477" y="4.76465" width="24" height="24" fill="#C4C4C4"/>
</mask>
<g mask="url(#mask0_2127_29292)">
<path d="M26.7648 9.32315C25.8723 9.71465 24.9213 9.97415 23.9298 10.1001C24.9498 9.49115 25.7283 8.53415 26.0943 7.38065C25.1433 7.94765 24.0933 8.34815 22.9743 8.57165C22.0713 7.61015 20.7843 7.01465 19.3803 7.01465C16.6563 7.01465 14.4633 9.22565 14.4633 11.9361C14.4633 12.3261 14.4963 12.7011 14.5773 13.0581C10.4868 12.8586 6.86727 10.8981 4.43577 7.91165C4.01127 8.64815 3.76227 9.49115 3.76227 10.3986C3.76227 12.1026 4.63977 13.6131 5.94777 14.4876C5.15727 14.4726 4.38177 14.2431 3.72477 13.8816C3.72477 13.8966 3.72477 13.9161 3.72477 13.9356C3.72477 16.3266 5.43027 18.3126 7.66677 18.7701C7.26627 18.8796 6.82977 18.9321 6.37677 18.9321C6.06177 18.9321 5.74377 18.9141 5.44527 18.8481C6.08277 20.7966 7.89177 22.2291 10.0428 22.2756C8.36877 23.5851 6.24327 24.3741 3.94227 24.3741C3.53877 24.3741 3.15177 24.3561 2.76477 24.3066C4.94427 25.7121 7.52727 26.5146 10.3128 26.5146C19.3668 26.5146 24.3168 19.0146 24.3168 12.5136C24.3168 12.2961 24.3093 12.0861 24.2988 11.8776C25.2753 11.1846 26.0958 10.3191 26.7648 9.32315Z" fill="white"/>
</g>
</svg>
