<svg width="50" height="50" viewBox="0 0 50 50" fill="none" xmlns="http://www.w3.org/2000/svg">
<g clip-path="url(#clip0_2060_22771)">
<path d="M47.2015 12.9169V6.78103C47.2022 5.53351 46.7139 4.33552 45.8415 3.44443L44.1982 1.79964C43.6259 1.21146 42.8405 0.879407 42.0202 0.878906H42.0131C41.1902 0.878656 40.4018 1.21004 39.8259 1.79822L37.3594 4.29251L36.1212 3.20926C35.8433 2.96022 35.4831 2.82318 35.1102 2.82443C34.7012 2.8266 34.3095 2.99054 34.0208 3.2805L33.8735 3.42798L33.3793 2.92916C32.4027 1.93861 31.0702 1.38099 29.6798 1.38099C28.2893 1.38099 26.9567 1.93861 25.9801 2.92916C23.9451 4.99903 23.9451 8.32002 25.9801 10.3898L26.4856 10.9015L26.4593 10.9279C25.8539 11.5452 25.8539 12.534 26.4593 13.1513L38.6987 25.5292C38.846 25.6794 39.0474 25.764 39.2576 25.764C39.4679 25.764 39.6693 25.6794 39.8166 25.5292L49.3219 15.9228C49.479 15.7611 49.5638 15.5425 49.5569 15.3171C49.5504 15.0919 49.4496 14.8799 49.2792 14.7327L47.2015 12.9169ZM27.4846 9.88464L26.9904 9.38581C25.5022 7.87272 25.5022 5.44432 26.9904 3.93123C27.6996 3.21135 28.6675 2.80606 29.6776 2.80606C30.6876 2.80606 31.6556 3.21135 32.3647 3.93123L32.8731 4.44216L27.4846 9.88464ZM45.7774 11.6626L38.4352 5.23312L40.8382 2.80297C41.1468 2.48478 41.5707 2.30489 42.0138 2.30414C42.4549 2.3059 42.8767 2.48578 43.1836 2.80297L44.8297 4.45277C45.4369 5.07519 45.7761 5.91108 45.7746 6.78095L45.7774 11.6626Z" fill="#00730C"/>
<path fill-rule="evenodd" clip-rule="evenodd" d="M24.6064 20.0903V23.0427H35.2054L31.0609 18.8608L24.6064 20.0903Z" fill="#00730C"/>
<path fill-rule="evenodd" clip-rule="evenodd" d="M19.0181 17.6407V26.2698C19.0114 26.4703 19.132 26.6532 19.3189 26.7261C19.4938 26.8043 19.699 26.7624 19.8293 26.6218L22.7435 23.6013V19.7512L19.8917 17.352C19.7897 17.2333 19.6437 17.1616 19.4875 17.1536C19.4296 17.1537 19.3723 17.1654 19.3189 17.1881C19.1333 17.2605 19.0131 17.4416 19.0181 17.6407Z" fill="#00730C"/>
<path fill-rule="evenodd" clip-rule="evenodd" d="M14.3613 24.9055C12.8182 24.9055 11.5671 26.1565 11.5671 27.6996V29.5624C11.5671 30.0768 11.9842 30.4938 12.4985 30.4938C13.0129 30.4938 13.4298 30.0768 13.4298 29.5624V27.6996C13.4298 27.1852 13.8469 26.7683 14.3611 26.7683C14.8755 26.7683 15.2925 26.3514 15.2925 25.837C15.2925 25.3226 14.8757 24.9055 14.3613 24.9055Z" fill="#00730C"/>
<path fill-rule="evenodd" clip-rule="evenodd" d="M14.3614 21.1799C10.7626 21.1845 7.84638 24.1008 7.8418 27.6995V29.5623C7.8418 30.0767 8.25873 30.4936 8.77313 30.4936C9.28753 30.4936 9.70447 30.0767 9.70447 29.5623V27.6995C9.70752 25.1289 11.7907 23.0458 14.3614 23.0426C14.8758 23.0426 15.2927 22.6257 15.2927 22.1113C15.2927 21.5969 14.8758 21.1799 14.3614 21.1799Z" fill="#00730C"/>
<path fill-rule="evenodd" clip-rule="evenodd" d="M14.3613 17.4546C8.70587 17.4612 4.12287 22.0443 4.11621 27.6997V29.5624C4.11621 30.0768 4.53325 30.4937 5.04755 30.4937C5.56184 30.4937 5.97888 30.0768 5.97888 29.5624V27.6996C5.98401 23.0723 9.73391 19.3224 14.3612 19.3173C14.8756 19.3173 15.2926 18.9002 15.2926 18.3859C15.2927 17.8715 14.8757 17.4546 14.3613 17.4546Z" fill="#00730C"/>
<path fill-rule="evenodd" clip-rule="evenodd" d="M32.0574 48.1897C32.0574 47.6753 31.6404 47.2583 31.126 47.2583H17.1554V44.7901C17.3387 44.5591 17.5346 44.3384 17.7422 44.1288C17.9387 43.9184 18.1469 43.7193 18.3662 43.5328H23.675C27.274 43.5286 30.1905 40.6122 30.1946 37.0132V33.3901C28.4749 34.5406 26.4519 35.1534 24.3828 35.1504C21.1868 35.1525 18.4483 37.4367 17.8725 40.5803L17.6769 41.6793C17.157 42.0862 16.6711 42.5346 16.224 43.0205C15.7769 42.5346 15.291 42.0862 14.7711 41.6793L14.5755 40.5803C13.9997 37.4366 11.2612 35.1525 8.06517 35.1504C5.99611 35.1534 3.9731 34.5406 2.25341 33.3901V37.0132C2.25755 40.6122 5.17402 43.5287 8.77298 43.5328H14.0818C14.5223 43.9147 14.9276 44.3355 15.2926 44.7901V47.2582H1.32196C0.80756 47.2582 0.390625 47.6753 0.390625 48.1896C0.390625 48.7039 0.807669 49.121 1.32207 49.121H31.126C31.6404 49.121 32.0574 48.7041 32.0574 48.1897Z" fill="#00730C"/>
</g>
<defs>
<clipPath id="clip0_2060_22771">
<rect width="50" height="50" fill="white"/>
</clipPath>
</defs>
</svg>
